<svg width="32" height="33" viewBox="0 0 32 33" fill="none" xmlns="http://www.w3.org/2000/svg">
<g id="Logo youtube 1">
<g id="Group">
<g id="Group_2">
<g id="Group_3">
<path id="Vector" d="M28.56 11.38C28.56 11.38 28.32 9.61996 27.52 8.81996C26.56 7.77996 25.44 7.77996 24.96 7.69996C21.36 7.45996 16 7.45996 16 7.45996C16 7.45996 10.64 7.45996 7.04001 7.69996C6.56001 7.77996 5.44001 7.77996 4.48001 8.81996C3.68001 9.61996 3.44001 11.38 3.44001 11.38C3.44001 11.38 3.20001 13.46 3.20001 15.54L3.20001 17.46C3.20001 19.54 3.44001 21.62 3.44001 21.62C3.44001 21.62 3.68001 23.38 4.48001 24.18C5.44001 25.22 6.72001 25.14 7.28001 25.3C9.36001 25.46 16 25.54 16 25.54C16 25.54 21.36 25.54 24.96 25.3C25.44 25.22 26.56 25.22 27.52 24.18C28.32 23.38 28.56 21.62 28.56 21.62C28.56 21.62 28.8 19.54 28.8 17.46V15.54C28.8 13.46 28.56 11.38 28.56 11.38ZM13.36 19.86L13.36 12.66L20.24 16.26L13.36 19.86Z" fill="#E82E2E"/>
</g>
</g>
</g>
</g>
</svg>
