<svg width="32" height="33" viewBox="0 0 32 33" fill="none" xmlns="http://www.w3.org/2000/svg">
<g id="Logo linkedin 1">
<g id="Group">
<g id="Group_2">
<g id="Group_3">
<path id="Vector" d="M26.4 4.5L5.6 4.5C4.71634 4.5 4 5.21634 4 6.1L4 26.9C4 27.7837 4.71634 28.5 5.6 28.5L26.4 28.5C27.2837 28.5 28 27.7837 28 26.9L28 6.1C28 5.21634 27.2837 4.5 26.4 4.5ZM11.1096 24.9752H7.4992L7.4992 13.5L11.1096 13.5L11.1096 24.9752ZM9.304 11.9248C8.14504 11.9213 7.20805 10.9795 7.2104 9.82055C7.21276 8.66159 8.15356 7.72364 9.31253 7.72481C10.4715 7.72598 11.4104 8.66584 11.4104 9.8248C11.4106 10.3829 11.1886 10.9182 10.7933 11.3122C10.398 11.7063 9.86213 11.9267 9.304 11.9248ZM24.4968 24.9752H20.96V19.4248C20.96 18.0752 20.96 16.4248 19.08 16.4248C17.2 16.4248 16.9736 17.8504 16.9736 19.3496L16.9736 25.0504H13.44L13.44 13.5L16.7488 13.5V15.0752H16.824C17.5194 13.873 18.8208 13.152 20.2088 13.2C23.8192 13.2 24.496 15.6 24.496 18.6752L24.4968 24.9752Z" fill="#2148A5"/>
</g>
</g>
</g>
</g>
</svg>
